{"title":"Straight.Outta.Compton.2015.HC.HDRiP.XViD.ReLeNTLesS","uid":12327031,"size":1863583885,"categoryP":"video","categoryS":"movies","magnet":"?xt=urn:btih:4faa1c50eb05a17fe26dde988d010f457a355652&amp;dn=Straight.Outta.Compton.2015.HC.HDRiP.XViD.ReLeNTLesS&amp;tr=udp%3A%2F%2Ftracker.openbittorrent.com%3A80&amp;tr=udp%3A%2F%2Fopen.demonii.com%3A1337&amp;tr=udp%3A%2F%2Ftracker.coppersurfer.tk%3A6969&amp;tr=udp%3A%2F%2Fexodus.desync.com%3A6969","seeders":7,"leechers":1,"uploader":"TvTeam","files":4,"time":1441130884,"description":"------------------------------------------------------------------------\n\n &lt;a href=&quot; https://www.torrenting.com&quot; rel=&quot;nofollow&quot; target=&quot;_NEW&quot;&gt; https://www.torrenting.com&lt;/a&gt;\n\nSign up is OPEN - for time being. Come and have fun\n\n.......................................................................................................................P0STER\n[img]http://i.imgur.com/WRTMru6.png[/img]\n\niMDB: http://www.imdb.com/title/tt1398426/\n\nGeneral\nComplete name               : Straight.Outta.Compton.2015.HC.HDRiP.XViD.ReLeNTLesS.avi\nFormat                      : AVI\nFormat/Info                 : Audio Video Interleave\nFile size                   : 1.71 GiB\nDuration                    : 2h 24mn\nOverall bit rate            : 1 702 Kbps\n\nVideo\nID                          : 0\nFormat                      : MPEG-4 Visual\nFormat profile              : Advanced Simple@L5\nFormat settings, BVOP       : 1\nFormat settings, QPel       : No\nFormat settings, GMC        : No warppoints\nFormat settings, Matrix     : Default (H.263)\nMuxing mode                 : Packed bitstream\nCodec ID                    : XVID\nCodec ID/Hint               : XviD\nDuration                    : 2h 24mn\nBit rate                    : 1 502 Kbps\nWidth                       : 720 pixels\nHeight                      : 304 pixels\nDisplay aspect ratio        : 2.35:1\nFrame rate                  : 25.000 fps\nColor space                 : YUV\nChroma subsampling          : 4:2:0\nBit depth                   : 8 bits\nScan type                   : Progressive\nCompression mode            : Lossy\nBits/(Pixel*Frame)          : 0.275\nStream size                 : 1.51 GiB (88%)\nWriting library             : XviD 1.2.1 (UTC 2008-12-04)\n\nAudio\nID                          : 1\nFormat                      : AC-3\nFormat/Info                 : Audio Coding 3\nMode extension              : CM (complete main)\nFormat settings, Endianness : Big\nCodec ID                    : 2000\nDuration                    : 2h 24mn\nBit rate mode               : Constant\nBit rate                    : 192 Kbps\nChannel(s)                  : 2 channels\nChannel positions           : Front: L R\nSampling rate               : 48.0 KHz\nCompression mode            : Lossy\nStream size                 : 198 MiB (11%)\nAlignment                   : Aligned on interleaves\nInterleave, duration        : 64 ms (1.60 video frames)\nInterleave, preload duratio : 192 ms\nTitle                       : Straight.Outta.Compton.2015.HC.ReLeNTLesS.audio.AC3.2.0_english\nSample Included             : Yes\nSource                      : CHS.Mp4Ba 1080 Thanks\n\nPL0T\nThe group NWA emerges from the mean streets of Compton in Los Angeles, California, in the mid-1980s and revolutionizes Hip Hop culture with their music and tales about life in the hood.\n\nCAST\nDirector: F. Gary Gray\nWriters: Jonathan Herman (screenplay), Andrea Berloff (screenplay)\nStars: O'Shea Jackson Jr., Corey Hawkins, Jason Mitchell\n\nN0TE\nWas waiting for a better source and settled for latest 1080 from CHS cause it dosen't cut out and skip, this will have to do its all in sync\netc so resized sharpend and muxed audio, will have to do till BRRiP.  Has hardcoded Chinese Subs throughout but cropped the bottom line out with \nboarders. \n\nSCREENS\n[img]http://i.imgur.com/oAgx97b.png[/img]\n[img]http://i.imgur.com/QREtrA8.png[/img]\n[img]http://i.imgur.com/RVSMnC1.png[/img]\n[img]http://i.imgur.com/xOLYJKZ.png[/img]\n[img]http://i.imgur.com/bGft07k.png[/img]\n[img]http://i.imgur.com/uPvfpH1.png[/img]\n[img]http://i.imgur.com/PWtHb9n.png[/img]\n[img]http://i.imgur.com/w3VZfnn.png[/img]\n\nTRAiLER\n\nGREETZ\n\n\nHIVE-CM8, Blackjesus, M0RPH, M00SE, MiLLENiUM,\n\nMANiX, TiTAN, Anonymous, TuX, \n\nACAB, KingStoner, FooKas, 4PlayHD, \n\nGodFather, Cld.... \n\nKeep up the good work guyz","torrent":{"xt":"urn:btih:4faa1c50eb05a17fe26dde988d010f457a355652","amp;dn":"Straight.Outta.Compton.2015.HC.HDRiP.XViD.ReLeNTLesS","amp;tr":["udp%3A%2F%2Ftracker.openbittorrent.com%3A80","udp%3A%2F%2Fopen.demonii.com%3A1337","udp%3A%2F%2Ftracker.coppersurfer.tk%3A6969","udp%3A%2F%2Fexodus.desync.com%3A6969"],"infoHash":"4faa1c50eb05a17fe26dde988d010f457a355652","infoHashBuffer":{"type":"Buffer","data":[79,170,28,80,235,5,161,127,226,109,222,152,141,1,15,69,122,53,86,82]},"announce":[],"urlList":[]}}